<svg aria-hidden="true" style="position: absolute; width: 0; height: 0; overflow: hidden;" version="1.1" xmlns="http://www.w3.org/2000/svg" xmlns:xlink="http://www.w3.org/1999/xlink">
	<defs>
		<symbol id="icon-arrow-left" viewBox="0 0 106 32">
			<path d="M0.493 16.349c-0.658-0.658-0.658-1.724 0-2.382l10.718-10.718c0.658-0.658 1.724-0.658 2.382 0s0.658 1.724 0 2.382l-9.527 9.527 9.527 9.527c0.658 0.658 0.658 1.724 0 2.382s-1.724 0.658-2.382 0l-10.718-10.718zM106.105 16.842h-104.421v-3.368h104.421v3.368z">
			</path>
		</symbol>
		<symbol id="icon-arrow-2" viewBox="0 0 106 32">
			<path d="M105.612 16.349c0.658-0.658 0.658-1.724 0-2.382l-10.718-10.718c-0.658-0.658-1.724-0.658-2.382 0s-0.658 1.724 0 2.382l9.527 9.527-9.527 9.527c-0.658 0.658-0.658 1.724 0 2.382s1.724 0.658 2.382 0l10.718-10.718zM0 16.842h104.421v-3.368h-104.421v3.368z">
			</path>
		</symbol>
		<symbol id="icon-star" viewBox="0 0 32 32">
			<path stroke-linejoin="miter" stroke-linecap="butt" stroke-miterlimit="4" stroke-width="1.7778" d="M15.166 3.070c0.285-0.776 1.383-0.776 1.669 0l2.825 7.687c0.27 0.735 0.849 1.313 1.583 1.583l7.687 2.825c0.777 0.285 0.777 1.383 0 1.669l-7.687 2.825c-0.735 0.27-1.313 0.849-1.583 1.583l-2.825 7.687c-0.285 0.777-1.383 0.777-1.669 0l-2.825-7.687c-0.27-0.735-0.849-1.313-1.583-1.583l-7.687-2.825c-0.776-0.285-0.776-1.383 0-1.669l7.687-2.825c0.735-0.27 1.313-0.849 1.583-1.583l2.825-7.687z">
			</path>
		</symbol>
		<symbol id="icon-stars" viewBox="0 0 24 32">
			<path stroke-linejoin="miter" stroke-linecap="butt" stroke-miterlimit="4" stroke-width="0.9143" d="M13.394 13.556c0.147-0.398 0.71-0.398 0.857 0l1.96 5.297c0.139 0.375 0.435 0.671 0.81 0.81l5.297 1.96c0.398 0.147 0.398 0.71 0 0.858l-5.297 1.96c-0.375 0.139-0.671 0.435-0.81 0.81l-1.96 5.297c-0.147 0.398-0.71 0.398-0.857 0l-1.96-5.297c-0.139-0.375-0.435-0.671-0.81-0.81l-5.297-1.96c-0.398-0.147-0.398-0.71 0-0.858l5.297-1.96c0.375-0.139 0.671-0.435 0.81-0.81l1.96-5.297z">
			</path>
			<path stroke-linejoin="miter" stroke-linecap="butt" stroke-miterlimit="4" stroke-width="0.9143" d="M8.822 0.756c0.147-0.398 0.71-0.398 0.857 0l1.96 5.297c0.139 0.375 0.435 0.671 0.81 0.81l5.297 1.96c0.398 0.147 0.398 0.71 0 0.857l-5.297 1.96c-0.375 0.139-0.671 0.435-0.81 0.81l-1.96 5.297c-0.147 0.398-0.71 0.398-0.857 0l-1.96-5.297c-0.139-0.375-0.435-0.671-0.81-0.81l-5.297-1.96c-0.398-0.147-0.398-0.71 0-0.857l5.297-1.96c0.375-0.139 0.671-0.435 0.81-0.81l1.96-5.297z">
			</path>
		</symbol>
		<symbol id="icon-facebook" viewBox="0 0 32 32">
			<path d="M19 6h5v-6h-5c-3.86 0-7 3.14-7 7v3h-4v6h4v16h6v-16h5l1-6h-6v-3c0-0.542 0.458-1 1-1z">
			</path>
		</symbol>
		<symbol id="icon-instagram" viewBox="0 0 32 32">
			<path d="M16 2.881c4.275 0 4.781 0.019 6.462 0.094 1.563 0.069 2.406 0.331 2.969 0.55 0.744 0.288 1.281 0.638 1.837 1.194 0.563 0.563 0.906 1.094 1.2 1.838 0.219 0.563 0.481 1.412 0.55 2.969 0.075 1.688 0.094 2.194 0.094 6.463s-0.019 4.781-0.094 6.463c-0.069 1.563-0.331 2.406-0.55 2.969-0.288 0.744-0.637 1.281-1.194 1.837-0.563 0.563-1.094 0.906-1.837 1.2-0.563 0.219-1.413 0.481-2.969 0.55-1.688 0.075-2.194 0.094-6.463 0.094s-4.781-0.019-6.463-0.094c-1.563-0.069-2.406-0.331-2.969-0.55-0.744-0.288-1.281-0.637-1.838-1.194-0.563-0.563-0.906-1.094-1.2-1.837-0.219-0.563-0.481-1.413-0.55-2.969-0.075-1.688-0.094-2.194-0.094-6.463s0.019-4.781 0.094-6.463c0.069-1.563 0.331-2.406 0.55-2.969 0.288-0.744 0.638-1.281 1.194-1.838 0.563-0.563 1.094-0.906 1.838-1.2 0.563-0.219 1.412-0.481 2.969-0.55 1.681-0.075 2.188-0.094 6.463-0.094zM16 0c-4.344 0-4.887 0.019-6.594 0.094-1.7 0.075-2.869 0.35-3.881 0.744-1.056 0.412-1.95 0.956-2.837 1.85-0.894 0.888-1.438 1.781-1.85 2.831-0.394 1.019-0.669 2.181-0.744 3.881-0.075 1.713-0.094 2.256-0.094 6.6s0.019 4.887 0.094 6.594c0.075 1.7 0.35 2.869 0.744 3.881 0.413 1.056 0.956 1.95 1.85 2.837 0.887 0.887 1.781 1.438 2.831 1.844 1.019 0.394 2.181 0.669 3.881 0.744 1.706 0.075 2.25 0.094 6.594 0.094s4.888-0.019 6.594-0.094c1.7-0.075 2.869-0.35 3.881-0.744 1.050-0.406 1.944-0.956 2.831-1.844s1.438-1.781 1.844-2.831c0.394-1.019 0.669-2.181 0.744-3.881 0.075-1.706 0.094-2.25 0.094-6.594s-0.019-4.887-0.094-6.594c-0.075-1.7-0.35-2.869-0.744-3.881-0.394-1.063-0.938-1.956-1.831-2.844-0.887-0.887-1.781-1.438-2.831-1.844-1.019-0.394-2.181-0.669-3.881-0.744-1.712-0.081-2.256-0.1-6.6-0.1v0z">
			</path>
			<path d="M16 7.781c-4.537 0-8.219 3.681-8.219 8.219s3.681 8.219 8.219 8.219 8.219-3.681 8.219-8.219c0-4.537-3.681-8.219-8.219-8.219zM16 21.331c-2.944 0-5.331-2.387-5.331-5.331s2.387-5.331 5.331-5.331c2.944 0 5.331 2.387 5.331 5.331s-2.387 5.331-5.331 5.331z">
			</path>
			<path d="M26.462 7.456c0 1.060-0.859 1.919-1.919 1.919s-1.919-0.859-1.919-1.919c0-1.060 0.859-1.919 1.919-1.919s1.919 0.859 1.919 1.919z">
			</path>
		</symbol>
		<symbol id="icon-youtube" viewBox="0 0 32 32">
			<path d="M31.681 9.6c0 0-0.313-2.206-1.275-3.175-1.219-1.275-2.581-1.281-3.206-1.356-4.475-0.325-11.194-0.325-11.194-0.325h-0.012c0 0-6.719 0-11.194 0.325-0.625 0.075-1.987 0.081-3.206 1.356-0.963 0.969-1.269 3.175-1.269 3.175s-0.319 2.588-0.319 5.181v2.425c0 2.587 0.319 5.181 0.319 5.181s0.313 2.206 1.269 3.175c1.219 1.275 2.819 1.231 3.531 1.369 2.563 0.244 10.881 0.319 10.881 0.319s6.725-0.012 11.2-0.331c0.625-0.075 1.988-0.081 3.206-1.356 0.962-0.969 1.275-3.175 1.275-3.175s0.319-2.587 0.319-5.181v-2.425c-0.006-2.588-0.325-5.181-0.325-5.181zM12.694 20.15v-8.994l8.644 4.513-8.644 4.481z">
			</path>
		</symbol>
		<symbol id="icon-StarlightStudio" viewBox="0 0 177 32">
			<path fill="#fff" style="fill: var(--color1, #fff)" d="M6.858 26.538c-1.489 0-2.733-0.321-3.732-0.964-0.978-0.643-1.722-1.531-2.233-2.667s-0.808-2.453-0.893-3.952l3.19-0.867c0.064 0.921 0.202 1.81 0.415 2.667 0.234 0.857 0.606 1.564 1.116 2.12 0.51 0.535 1.223 0.803 2.137 0.803 0.936 0 1.637-0.257 2.105-0.771 0.489-0.535 0.734-1.296 0.734-2.281 0-1.178-0.266-2.12-0.797-2.827-0.532-0.728-1.201-1.457-2.010-2.185l-4.338-3.855c-0.851-0.75-1.478-1.564-1.882-2.442-0.404-0.9-0.606-2.003-0.606-3.309 0-1.906 0.542-3.384 1.627-4.434s2.562-1.574 4.434-1.574c1.021 0 1.914 0.139 2.679 0.418 0.787 0.257 1.435 0.664 1.946 1.221 0.532 0.557 0.946 1.264 1.244 2.12 0.319 0.835 0.532 1.821 0.638 2.956l-3.062 0.835c-0.064-0.857-0.191-1.639-0.383-2.345-0.191-0.728-0.532-1.307-1.021-1.735-0.468-0.45-1.148-0.675-2.041-0.675s-1.595 0.246-2.105 0.739c-0.489 0.471-0.734 1.178-0.734 2.12 0 0.792 0.128 1.446 0.383 1.96 0.276 0.514 0.712 1.039 1.308 1.574l4.37 3.855c0.978 0.857 1.839 1.885 2.584 3.084 0.744 1.178 1.116 2.581 1.116 4.209 0 1.285-0.266 2.399-0.797 3.341-0.532 0.921-1.265 1.628-2.201 2.121-0.914 0.493-1.978 0.739-3.19 0.739z">
			</path>
			<path fill="#fff" style="fill: var(--color1, #fff)" d="M20.787 26.506c-0.957 0-1.733-0.182-2.329-0.546-0.574-0.364-0.999-0.878-1.276-1.542-0.255-0.664-0.383-1.446-0.383-2.345v-12.112h-1.946v-2.281h1.946v-5.43h3.413v5.43h2.966v2.281h-2.966v11.888c0 0.728 0.117 1.253 0.351 1.574 0.234 0.3 0.68 0.45 1.34 0.45 0.17 0 0.361-0.011 0.574-0.032 0.234-0.021 0.457-0.043 0.67-0.064v2.538c-0.425 0.064-0.819 0.107-1.18 0.129-0.361 0.043-0.755 0.064-1.18 0.064z">
			</path>
			<path fill="#fff" style="fill: var(--color1, #fff)" d="M29.323 26.506c-0.723 0-1.361-0.203-1.914-0.611-0.553-0.428-0.989-0.964-1.308-1.606-0.319-0.664-0.478-1.36-0.478-2.088 0-1.157 0.191-2.131 0.574-2.924s0.904-1.456 1.563-1.992c0.68-0.557 1.457-1.039 2.329-1.446 0.893-0.407 1.829-0.803 2.807-1.189v-1.317c0-0.75-0.043-1.371-0.128-1.863s-0.266-0.857-0.542-1.092c-0.255-0.257-0.649-0.386-1.18-0.386-0.468 0-0.851 0.107-1.148 0.321-0.276 0.214-0.479 0.525-0.606 0.932-0.128 0.386-0.191 0.846-0.191 1.381v0.932l-3.381-0.129c0.043-2.056 0.51-3.566 1.404-4.53 0.893-0.985 2.275-1.478 4.147-1.478 1.829 0 3.126 0.503 3.892 1.51s1.148 2.463 1.148 4.37v8.482c0 0.578 0.011 1.135 0.032 1.671 0.043 0.535 0.085 1.039 0.128 1.51 0.064 0.45 0.117 0.878 0.159 1.285h-3.126c-0.064-0.343-0.149-0.771-0.255-1.285-0.085-0.535-0.149-1.017-0.191-1.446-0.213 0.728-0.627 1.414-1.244 2.056-0.595 0.621-1.425 0.932-2.488 0.932zM30.663 23.55c0.34 0 0.659-0.096 0.957-0.289s0.563-0.407 0.797-0.643c0.234-0.257 0.393-0.461 0.478-0.611v-5.269c-0.532 0.3-1.031 0.6-1.499 0.9s-0.883 0.621-1.244 0.964c-0.34 0.321-0.617 0.696-0.829 1.125-0.191 0.407-0.287 0.878-0.287 1.414 0 0.75 0.138 1.339 0.415 1.767s0.68 0.643 1.212 0.643z">
			</path>
			<path fill="#fff" style="fill: var(--color1, #fff)" d="M40.002 26.249v-18.57h3.413v2.635c0.68-1.135 1.361-1.896 2.041-2.281s1.361-0.578 2.041-0.578c0.085 0 0.159 0 0.223 0 0.085 0 0.191 0.011 0.319 0.032v3.791c-0.255-0.107-0.553-0.193-0.893-0.257-0.319-0.086-0.649-0.129-0.989-0.129-0.532 0-1.021 0.129-1.467 0.386-0.425 0.236-0.851 0.707-1.276 1.414v13.558h-3.413z">
			</path>
			<path fill="#fff" style="fill: var(--color1, #fff)" d="M50.792 26.249v-26.024h3.413v26.024h-3.413z">
			</path>
			<path fill="#fff" style="fill: var(--color1, #fff)" d="M58.305 26.249v-18.57h3.413v18.57h-3.413zM58.305 4.916v-3.598h3.413v3.598h-3.413z">
			</path>
			<path fill="#fff" style="fill: var(--color1, #fff)" d="M70.474 32c-1.106 0-2.105-0.118-2.998-0.353s-1.595-0.61-2.105-1.125c-0.51-0.514-0.766-1.189-0.766-2.024 0-0.6 0.128-1.124 0.383-1.574s0.585-0.835 0.989-1.157c0.404-0.343 0.829-0.621 1.276-0.835-0.595-0.171-1.042-0.439-1.34-0.803-0.298-0.386-0.447-0.782-0.447-1.189 0-0.685 0.181-1.274 0.542-1.767s0.861-1.028 1.499-1.607c-0.702-0.535-1.233-1.221-1.595-2.056s-0.542-1.992-0.542-3.47c0-1.457 0.191-2.667 0.574-3.631 0.404-0.985 0.989-1.724 1.754-2.217 0.787-0.514 1.744-0.771 2.871-0.771 0.999 0 1.797 0.171 2.392 0.514 0.617 0.343 1.085 0.857 1.403 1.542 0.106-0.171 0.393-0.461 0.861-0.867 0.468-0.428 1.010-0.782 1.627-1.060l0.51-0.225 0.861 2.217c-0.276 0.043-0.649 0.15-1.116 0.321-0.447 0.15-0.872 0.311-1.276 0.482-0.383 0.15-0.627 0.278-0.734 0.386 0.149 0.364 0.276 0.889 0.383 1.574 0.128 0.685 0.191 1.296 0.191 1.831 0 1.264-0.159 2.377-0.478 3.341s-0.851 1.724-1.595 2.281c-0.723 0.535-1.733 0.803-3.030 0.803-0.276 0-0.574-0.021-0.893-0.064s-0.606-0.096-0.861-0.161c-0.128 0.193-0.266 0.418-0.415 0.675-0.128 0.257-0.191 0.503-0.191 0.739s0.117 0.428 0.351 0.578c0.255 0.129 0.649 0.214 1.18 0.257l2.871 0.257c1.446 0.129 2.52 0.568 3.222 1.317s1.053 1.821 1.053 3.213c0 1.007-0.234 1.853-0.702 2.538-0.468 0.707-1.18 1.232-2.137 1.574-0.936 0.343-2.126 0.514-3.573 0.514zM70.73 29.301c1.212 0 2.105-0.15 2.679-0.45 0.574-0.278 0.861-0.739 0.861-1.381 0-0.386-0.074-0.707-0.223-0.964-0.128-0.257-0.372-0.461-0.734-0.61s-0.882-0.257-1.563-0.321l-2.903-0.257c-0.234 0.236-0.457 0.471-0.67 0.707s-0.383 0.482-0.51 0.739c-0.128 0.279-0.191 0.568-0.191 0.867 0 0.557 0.234 0.975 0.702 1.253s1.319 0.418 2.552 0.418zM70.57 18.153c0.489 0 0.872-0.086 1.148-0.257 0.298-0.193 0.521-0.46 0.67-0.803 0.149-0.364 0.245-0.803 0.287-1.317 0.064-0.514 0.096-1.092 0.096-1.735s-0.032-1.221-0.096-1.735c-0.043-0.535-0.138-0.985-0.287-1.349-0.128-0.386-0.34-0.675-0.638-0.867-0.276-0.193-0.659-0.289-1.148-0.289-0.468 0-0.861 0.096-1.18 0.289-0.298 0.193-0.521 0.471-0.67 0.835-0.149 0.343-0.255 0.782-0.319 1.317-0.064 0.514-0.096 1.114-0.096 1.799 0 0.578 0.021 1.124 0.064 1.639 0.064 0.493 0.17 0.921 0.319 1.285 0.17 0.364 0.404 0.653 0.702 0.867s0.681 0.321 1.148 0.321z">
			</path>
			<path fill="#fff" style="fill: var(--color1, #fff)" d="M79.966 26.249v-26.024h3.413v9.382c0.617-0.6 1.308-1.114 2.073-1.542s1.616-0.643 2.552-0.643c0.723 0 1.276 0.193 1.659 0.578 0.404 0.386 0.681 0.867 0.829 1.446 0.17 0.578 0.255 1.167 0.255 1.767v15.036h-3.413v-14.040c0-0.664-0.096-1.178-0.287-1.542s-0.585-0.546-1.18-0.546c-0.404 0-0.829 0.118-1.276 0.353-0.425 0.236-0.829 0.525-1.212 0.867v14.908h-3.413z">
			</path>
			<path fill="#fff" style="fill: var(--color1, #fff)" d="M99.307 26.506c-0.957 0-1.733-0.182-2.329-0.546-0.574-0.364-0.999-0.878-1.276-1.542-0.256-0.664-0.383-1.446-0.383-2.345v-12.112h-1.946v-2.281h1.946v-5.43h3.413v5.43h2.966v2.281h-2.966v11.888c0 0.728 0.116 1.253 0.35 1.574 0.235 0.3 0.681 0.45 1.34 0.45 0.17 0 0.361-0.011 0.573-0.032 0.235-0.021 0.458-0.043 0.67-0.064v2.538c-0.425 0.064-0.819 0.107-1.18 0.129-0.361 0.043-0.755 0.064-1.18 0.064z">
			</path>
			<path fill="#fff" style="fill: var(--color1, #fff)" d="M110.905 26.538c-1.489 0-2.732-0.321-3.732-0.964-0.978-0.643-1.722-1.531-2.232-2.667s-0.809-2.453-0.893-3.952l3.189-0.867c0.064 0.921 0.203 1.81 0.415 2.667 0.234 0.857 0.606 1.564 1.116 2.12 0.51 0.535 1.222 0.803 2.137 0.803 0.936 0 1.637-0.257 2.105-0.771 0.49-0.535 0.734-1.296 0.734-2.281 0-1.178-0.266-2.12-0.797-2.827-0.532-0.728-1.202-1.457-2.010-2.185l-4.338-3.855c-0.851-0.75-1.478-1.564-1.883-2.442-0.404-0.9-0.606-2.003-0.606-3.309 0-1.906 0.543-3.384 1.628-4.434s2.562-1.574 4.434-1.574c1.020 0 1.914 0.139 2.679 0.418 0.787 0.257 1.436 0.664 1.946 1.221 0.532 0.557 0.947 1.264 1.244 2.12 0.318 0.835 0.532 1.821 0.637 2.956l-3.062 0.835c-0.064-0.857-0.191-1.639-0.382-2.345-0.192-0.728-0.532-1.307-1.021-1.735-0.468-0.45-1.148-0.675-2.041-0.675s-1.596 0.246-2.106 0.739c-0.489 0.471-0.733 1.178-0.733 2.12 0 0.792 0.127 1.446 0.383 1.96 0.276 0.514 0.712 1.039 1.308 1.574l4.37 3.855c0.979 0.857 1.839 1.885 2.584 3.084 0.744 1.178 1.116 2.581 1.116 4.209 0 1.285-0.266 2.399-0.797 3.341-0.532 0.921-1.266 1.628-2.201 2.121-0.915 0.493-1.978 0.739-3.19 0.739z">
			</path>
			<path fill="#fff" style="fill: var(--color1, #fff)" d="M124.833 26.506c-0.956 0-1.732-0.182-2.328-0.546-0.574-0.364-1-0.878-1.276-1.542-0.255-0.664-0.382-1.446-0.382-2.345v-12.112h-1.946v-2.281h1.946v-5.43h3.413v5.43h2.966v2.281h-2.966v11.888c0 0.728 0.116 1.253 0.35 1.574 0.234 0.3 0.681 0.45 1.34 0.45 0.171 0 0.362-0.011 0.574-0.032 0.235-0.021 0.458-0.043 0.67-0.064v2.538c-0.425 0.064-0.819 0.107-1.18 0.129-0.361 0.043-0.755 0.064-1.18 0.064z">
			</path>
			<path fill="#fff" style="fill: var(--color1, #fff)" d="M132.7 26.506c-0.723 0-1.286-0.193-1.691-0.578s-0.691-0.867-0.86-1.446c-0.149-0.578-0.224-1.167-0.224-1.767v-15.036h3.413v14.008c0 0.664 0.096 1.189 0.287 1.574 0.191 0.364 0.585 0.546 1.18 0.546 0.382 0 0.776-0.107 1.18-0.321 0.425-0.236 0.829-0.514 1.212-0.835v-14.972h3.413v18.57h-3.413v-1.831c-0.596 0.578-1.276 1.071-2.041 1.478-0.745 0.407-1.564 0.611-2.457 0.611z">
			</path>
			<path fill="#fff" style="fill: var(--color1, #fff)" d="M148.694 26.506c-1.552 0-2.711-0.568-3.476-1.703-0.766-1.157-1.148-3.106-1.148-5.847v-3.598c0-1.414 0.116-2.72 0.351-3.92 0.234-1.221 0.669-2.195 1.308-2.924 0.66-0.728 1.616-1.092 2.871-1.092 0.616 0 1.18 0.139 1.69 0.418s0.968 0.621 1.372 1.028v-8.643h3.412v26.024h-3.412v-1.189c-0.404 0.428-0.851 0.782-1.34 1.060-0.468 0.257-1.010 0.386-1.627 0.386zM149.556 23.807c0.319 0 0.66-0.053 1.020-0.161 0.362-0.129 0.724-0.311 1.085-0.546v-12.177c-0.298-0.214-0.628-0.396-0.989-0.546-0.362-0.171-0.755-0.257-1.18-0.257-0.787 0-1.318 0.386-1.595 1.157-0.276 0.75-0.414 1.66-0.414 2.731v5.237c0 0.857 0.042 1.639 0.127 2.345 0.107 0.685 0.308 1.232 0.606 1.639 0.298 0.386 0.744 0.578 1.34 0.578z">
			</path>
			<path fill="#fff" style="fill: var(--color1, #fff)" d="M159.074 26.249v-18.57h3.412v18.57h-3.412zM159.074 4.916v-3.598h3.412v3.598h-3.412z">
			</path>
			<path fill="#fff" style="fill: var(--color1, #fff)" d="M171.53 26.506c-1.361 0-2.435-0.279-3.221-0.835s-1.35-1.349-1.691-2.378c-0.319-1.028-0.478-2.238-0.478-3.631v-5.398c0-1.392 0.159-2.602 0.478-3.63 0.34-1.028 0.904-1.821 1.691-2.378s1.86-0.835 3.221-0.835c1.361 0 2.425 0.278 3.19 0.835 0.787 0.557 1.34 1.349 1.659 2.378 0.34 1.028 0.51 2.238 0.51 3.63v5.398c0 1.392-0.17 2.602-0.51 3.631-0.319 1.028-0.872 1.821-1.659 2.378-0.765 0.557-1.829 0.835-3.19 0.835zM171.53 23.968c0.66 0 1.116-0.193 1.372-0.578 0.276-0.386 0.436-0.889 0.479-1.51 0.063-0.643 0.095-1.307 0.095-1.992v-5.815c0-0.707-0.032-1.371-0.095-1.992-0.043-0.621-0.203-1.125-0.479-1.51-0.255-0.407-0.712-0.611-1.372-0.611s-1.127 0.203-1.404 0.611c-0.276 0.386-0.446 0.889-0.51 1.51-0.043 0.621-0.064 1.285-0.064 1.992v5.815c0 0.685 0.021 1.349 0.064 1.992 0.064 0.621 0.234 1.124 0.51 1.51s0.745 0.578 1.404 0.578z">
			</path>
		</symbol>
		<symbol viewBox="0 0 48 48" id="icon-burg">
			<path d="M7.94995 11.95H39.95M7.94995 23.95H39.95M7.94995 35.95H39.95" stroke-width="4" stroke-linecap="round" stroke-linejoin="round" />
		</symbol>
	</defs>
</svg>
